<svg xmlns="http://www.w3.org/2000/svg" viewBox="0 0 3000 3000" xml:space="preserve" style="fill-rule:evenodd;clip-rule:evenodd;stroke-linecap:round;stroke-linejoin:round;stroke-miterlimit:1.5"><path style="fill:none" d="M0 0h3000v3000H0z"/><path d="M773.892 658.385s713.08-.774 713.224-2.66M833.726 777.814h620.407M1896.16 1975.36l410.158-9.803v-503.14" style="fill:none;stroke:#1b2e35;stroke-width:2.89px;stroke-dasharray:28.87,57.74,0,0"/><path d="m2400.01 1462.42-1.961 593.322-458.942 9.718" style="fill:none;stroke:#1b2e35;stroke-width:2.89px;stroke-dasharray:28.87,57.74,0,0"/><path d="M619.325 586.563c-65.32-148.135-167.076-144.077-224.792 2.281-58.084.894-94.616 30.075-102.839 96.411-82.939 43.824-92.507 95.255-25.707 154.259h481.51c77.795-51.743 39.109-93.374-4.831-140.702-8.542-64.049-29.887-115.715-123.341-112.249ZM2778.09 603.394H1512.18v849.767h193.814L1661.6 1571.58l267.288-118.419h849.202V603.394Z" style="fill:#e4e9ff"/><path d="M2778.09 603.394H1512.18v346.854l1265.91-4.199V603.394Z" style="fill:#abf"/><path style="fill:#e4e9ff" d="M918.099 181.038h811.586v353.169H918.099z"/><path d="M1246.23 1977.46c-90.186-101.816-32.65-311.334 136.769-289.47 117.726 15.193 350.547 218.049 456.647 349.538 31.44 159.436-111.305 280.381-271.346 325.989 0 0-252.544-307.567-322.07-386.057Z" style="fill:#d65057"/><path d="m1513.09 2213.87 210.721-236.405s293.289 160.133 342.182 234.283c127.382 193.183-66.675 401.425-276.53 268.907-74.966-47.34-276.373-266.785-276.373-266.785Z" style="fill:#ffbe9d"/><path d="M1246.23 1977.46c-90.186-101.816-32.65-311.334 136.769-289.47 117.726 15.193 350.547 218.049 456.647 349.538-109.827 40.69-229.491 181.036-271.346 325.989 0 0-252.544-307.567-322.07-386.057Z" style="fill:#ffb228"/><path d="M1560.48 2083.05c-6.647-10.711-265.735-210.258 27.504-336.934 139.857-60.417 255.536 87.841 287.631 186.347 11.248 34.52-19.077 92.498-19.077 92.498s208.663 156.879 238.219 243.146c63.5 185.345-149.078 353.029-337.301 191.689-72.562-62.199-130.268-269.236-196.976-376.746Z" style="fill:#ffbe9d"/><path d="M1363.75 1687.78c-169.47-38.517-324.046-41.289-460.263 0l-87.679 970.525c345.108 223.107 701.327 128.581 789.058-51.146L1363.75 1687.78Z" style="fill:#ffb228"/><path d="m1537.63 2340.29-69.574-244.317 64.428 245.666a2.66 2.66 0 0 0 5.146-1.349Z" style="fill:#9e242f"/><path d="m1004.28 2244.13-283.089-5.48s-106.679 321.95-80.48 406.817c69.34 224.607 345.015 238.433 385.717-1.428 14.833-87.413-22.148-399.909-22.148-399.909Z" style="fill:#ffbe9d"/><path d="M1059.23 1785.21c-6.827-135.844-230.038-126.311-335.759 7.867-73.464 93.238-68.113 407.015-51.887 575.191 106.928-47.791 188.419-80.195 319.756-5.94 0 0 73.154-472.396 67.89-577.118Z" style="fill:#ffb228"/><path d="m1323.89 1472.85-216.084-38.809-83.462 231.863c123.541 142.072 228.492 161.62 309.067 20.506l-9.521-213.56Z" style="fill:#ffbe9d"/><path d="m1323.89 1472.85-216.084-38.809c15.948 84.021 87.193 121.593 219.175 108.146l-3.091-69.337Z" style="fill:#f69e70"/><path d="M1315.24 1120.04c-126.713-69.37-240.28-16.689-290.894 29.999-32.178 29.682-139.51 198.413 58.133 243.992 52.666 143.489 287.097 111.48 324.63 61.01 83.154-111.814-25.923-298.898-91.869-335.001Z" style="fill:#ffbe9d"/><path d="M1336.08 1199.98c3.994-1.93 10.774 3.825 15.131 12.843 4.357 9.018 4.652 17.906.658 19.835-3.994 1.93-10.773-3.825-15.13-12.843-4.357-9.018-4.652-17.906-.659-19.835Z" style="fill:#160a04"/><ellipse cx="1319.36" cy="1328.81" rx="24.619" ry="23.136" style="fill:#fffbf9"/><path d="m1247.87 1156.4 82.09 52.693-17.915 45.603a2.66 2.66 0 0 0 4.951 1.945l18.713-47.634a2.66 2.66 0 0 0-1.039-3.211l-83.927-53.872a2.66 2.66 0 1 0-2.873 4.476ZM1198.88 1189.9c4.226-3.958 15.387 1.082 24.907 11.247 9.52 10.166 13.819 21.632 9.593 25.59-4.227 3.958-15.387-1.082-24.907-11.247-9.521-10.166-13.819-21.632-9.593-25.59Z" style="fill:#160a04"/><path d="M1369.09 1039.99c-24.847-100.529-68.532-98.794-118.364-63.69-40.708-50.689-79.958-56.17-117.099 3.699-46.826-65.248-87.801-54.959-123.928 18.881-100.236-14.539-101.297 32.479-97.256 82.663-52.664 32.189-61.153 69.9-28.226 112.787-24.28 35.557-26.577 72.213 20.489 111.337-31.294 77.418 46.617 103.268 144.085 119.882l47.358 37.42 11.432-28.934-20.764-46.423c-194.607-47.95-79.957-198.006 14.214-106.41 0 0-47.57-71.427-16.129-109.38 119.352-144.068 247.393-56.581 316.301 62.024 53.627-33.676 69.298-65.947 26.631-96.057 23.298-46.893 3.55-79.437-58.744-97.799Z" style="fill:#160a04"/><path d="M1805.32 1751.99 676.11 1568.262l-87.78 382.812 1129.21 183.729 87.78-382.813Z" style="fill:#e4e9ff"/><text x="2126.72" y="-6230.61" style="font-family:'Roboto-Regular','Roboto';font-size:229.779px;fill:#1f2328" transform="rotate(10.236 -43746.32 -9122.22)">H<tspan x="2287.28" y="-6230.61">T</tspan>ML</text><path d="M1069.9 1985.74c-7.283-17.132-34.165-27.871-53.805-14.96-15.16-64.695-50.829-54.531-94.543-15.004-12.356-54.523-38.691-66.573-86.369-13.706-12.522-24.653-38.32-41.904-67.147-4.234-15.882 20.756-51.59 73.033-45.542 113.277 7.259 48.309 89.098 176.577 89.098 176.577s-150.28 233.951-167.021 323.591c-36.895 197.548 199.126 370.2 354.777 190.319 62.536-72.271 106.867-387.933 118.626-513.91 7.117-76.258-31.094-202.01-48.074-241.95Z" style="fill:#ffbe9d"/><path d="M744.345 2338.47c-42.356 73.162-90.698 164.201-99.776 212.808" style="fill:none;stroke:#050505;stroke-width:2.89px"/><path d="M836.671 1940.58s-20.419 60.163-30.677 108.294c-4.471 20.978-6.963 39.717-5.188 50.42 2.143 12.921 14.235 24.504 28.221 33.543 20.234 13.078 44.131 21.015 44.131 21.015a2.66 2.66 0 0 0 1.676-5.049s-23.242-7.715-42.92-20.434c-12.623-8.159-23.926-18.282-25.86-29.945-1.706-10.287.846-28.28 5.143-48.442 10.201-47.863 30.511-107.693 30.511-107.693a2.66 2.66 0 1 0-5.037-1.709ZM917.899 1958.98s-41.818 136.469-39.722 169.626c1.079 17.056 14.581 24.737 30.702 27.467 22.709 3.845 50.412-2.139 50.412-2.139a2.66 2.66 0 0 0-1.127-5.199s-26.595 5.785-48.397 2.093c-13.554-2.295-25.374-8.218-26.281-22.558-2.074-32.795 39.498-167.728 39.498-167.728a2.66 2.66 0 1 0-5.085-1.562ZM1011.76 1976.16s-24.951 63.316-31.981 112.578c-1.837 12.875-2.447 24.806-1.133 34.455.923 6.779 2.81 12.471 5.788 16.696 12.894 18.295 31.07 16.992 48.296 8.512 24.468-12.045 46.83-38.772 46.83-38.772a2.66 2.66 0 0 0-4.083-3.411s-21.515 25.802-45.096 37.41c-14.807 7.289-30.516 8.921-41.599-6.804-2.554-3.622-4.074-8.536-4.866-14.349-1.257-9.238-.63-20.659 1.129-32.985 6.956-48.74 31.664-111.378 31.664-111.378a2.659 2.659 0 1 0-4.949-1.952ZM745.233 2100.86c16.406 14.646 32.654 18.147 48.83 17.004a2.66 2.66 0 0 0-.375-5.306c-14.881 1.051-29.82-2.193-44.912-15.666a2.66 2.66 0 0 0-3.543 3.968Z" style="fill:#160a04"/><path d="M1722.69 1665.07c-31.873-.6-118.765 36.123-131.382 56.927-12.617 20.804 11.644 55.806 55.679 67.897-57.152 65.822-25.01 83.139 57.264 73.224-7.908 37.343 15.454 56.12 62.623 60.761 0 0 16.649 46.38 47.39 41.999 21.086-3.006 73.208-17.215 80.112-33.356 9.517-22.25-26.884-57.543-26.884-57.543-3.191-24.507-14.445-48.118-33.127-70.904-4.188-34.883-21.814-60.808-51.819-78.48-7.386-28.253-31.487-59.992-59.856-60.525Z" style="fill:#ffbe9d"/><path d="M1783.77 1733.92c-45.83 10.491-86.297 28.136-121.927 52.229a2.66 2.66 0 1 0 2.98 4.406c35.105-23.737 74.979-41.113 120.134-51.45a2.66 2.66 0 0 0-1.187-5.185ZM1824.88 1805.17c-41.897 4.668-79.151 22.339-112.501 50.936a2.66 2.66 0 1 0 3.463 4.038c32.504-27.872 68.793-45.138 109.627-49.687a2.66 2.66 0 0 0-.589-5.287ZM1836.02 1903.22c-26.682-3.233-46.459 3.907-62.691 16.35a2.66 2.66 0 1 0 3.237 4.222c15.225-11.672 33.787-18.324 58.814-15.292a2.66 2.66 0 1 0 .64-5.28Z" style="fill:#160a04"/><circle cx="1668.23" cy="777.814" r="44.166" style="fill:#1f2328"/><circle cx="1809.87" cy="777.814" r="44.166" style="fill:#1f2328"/><circle cx="1968.73" cy="777.814" r="44.166" style="fill:#1f2328"/><text x="1791.16" y="1354.22" style="font-family:'Roboto-Regular','Roboto';font-size:531.949px;fill:#1f2328">&lt;/&gt;</text><text x="1101.12" y="409.936" style="font-family:'Roboto-Regular','Roboto';font-size:228.895px;fill:#1f2328">CSS</text></svg>